<svg xmlns="http://www.w3.org/2000/svg" viewBox="0 0 32 32" fill="none">
  <rect width="32" height="32" rx="6" fill="#050505"/>
  <g transform="translate(3.5 2.5) scale(0.1)">
    <path d="M0.809509 0.483154C2.00234 -0.317801 44.8874 0.117012 51.291 0.124756L197.357 0.93042L222.614 1.1521C231.49 1.22232 242.499 -0.43906 247.436 8.8103C250.68 14.888 249.74 23.9719 249.735 30.824L249.76 56.9587C249.753 71.5677 250.394 86.3833 249.608 100.955C249.524 102.541 248.667 105.451 248.225 107.062C250.265 109.015 249.792 110.233 249.46 112.765C248.158 112.928 246.798 113.034 245.487 113.157C244.019 115.063 243.738 115.922 243.067 118.165C244.414 118.424 246.248 118.457 247.84 118.61L248.505 118.683C250.614 119.57 249.941 121.665 249.524 123.587C247.133 123.762 244.88 123.72 242.489 123.698C241.63 123.811 240.775 123.931 239.914 124.015C239.208 125.337 237.772 127.583 237.946 129.008C239.182 129.789 247.198 129.667 249.448 129.824C249.756 131.784 249.686 132.971 249.408 134.94C246.569 135.043 235.318 134.54 233.898 136.034C232.955 137.026 232.519 138.578 232.067 139.844C237.984 140.896 243.991 139.788 249.423 140.762C249.54 142.783 249.536 143.926 249.411 145.947C243.414 146.828 235.225 145.879 228.64 146.539C228.018 147.758 226.724 149.818 227.107 151.08C229.301 152.531 245.24 150.968 248.792 152.183C250.039 152.61 249.479 155.852 249.394 156.82C247.952 156.92 242.489 157.077 241.056 156.894C239.347 157.174 233.87 157.05 231.914 157.049C229.137 157.06 226.124 157.014 223.368 157.114C221.751 158.766 221.049 159.634 219.955 161.76C229.636 162.326 239.808 161.666 249.296 162.32C249.512 164.127 249.456 165.386 249.331 167.189C246.22 167.547 241.894 167.466 238.679 167.485L222.222 167.612L157.443 167.889C152.879 167.903 148.315 167.888 143.752 167.844C140.27 167.812 135.636 167.713 132.178 168.079C131.231 169.899 130.862 170.676 130.417 172.745C132.868 173.343 137.743 173.218 140.481 173.243L154.648 173.369L223.05 173.504L238.707 173.561C241.924 173.571 246.156 173.514 249.316 173.845C249.49 175.762 249.472 176.734 249.376 178.663C244.544 179.103 239.323 178.998 234.444 179.004L213.372 179.002L157.81 179.207L139.024 179.119C135.758 179.108 130.581 178.979 127.427 179.405C126.247 181.245 125.967 182.072 125.516 184.218C130.09 184.771 136.017 184.642 140.761 184.666L158.652 184.844L222.829 184.857L238.652 184.937C241.769 184.95 246.426 184.855 249.446 185.275C249.474 186.556 249.712 189.173 248.999 190.141C247.351 190.568 241.314 190.5 239.267 190.512L157.939 190.618L135.342 190.722C131.263 190.753 126.509 190.638 122.518 190.937C121.741 192.16 120.698 193.585 120.709 195.047C121.16 196.003 121.912 196.017 122.975 196.055C130.394 196.326 137.99 196.365 145.402 196.384L187.383 196.433C196.142 196.422 205.294 196.275 214.019 196.461L233.173 196.413C235.371 196.415 240.979 196.315 242.976 196.618C244.818 196.594 247.617 196.586 249.43 196.9C249.514 198.707 249.561 199.738 249.396 201.548C242.776 201.885 234.726 201.935 228.042 201.861C225.561 201.879 223.081 201.863 220.602 201.813C211.906 201.994 202.716 201.886 193.988 201.886L130.199 201.934C126.827 201.94 123.36 201.892 120.003 202.044C119.085 202.085 117.732 202.257 117.166 202.985C116.663 203.631 115.683 205.333 115.831 206.183C115.871 206.412 116.12 206.707 116.268 206.925C118.196 208.081 127.081 207.699 129.787 207.713L152.752 207.775L222.864 207.81C230.118 207.829 242.47 207.476 249.428 208.245C249.677 210.083 249.726 211.094 249.435 212.94C245.619 213.355 238.238 213.241 234.258 213.272L174.798 213.346C171.98 213.352 163.799 213.583 161.447 213.343C157.335 213.588 150.212 213.426 145.999 213.366C135.357 214.049 123.151 213.117 112.341 213.676C111.816 214.719 110.711 216.558 111.005 217.738C111.082 218.049 111.215 218.263 111.501 218.409C114.611 220.014 233.875 218.433 249.364 219.308C249.625 220.82 249.969 222.505 249.446 223.976C248.841 224.508 248.121 224.499 247.248 224.515C239.281 224.673 231.262 224.671 223.297 224.664L126.682 224.732C122.198 224.697 117.855 224.706 113.28 224.767C110.095 224.807 106.968 223.823 106.088 228.177C105.944 228.888 106.174 229.084 106.532 229.482C108.84 230.04 123.625 230.094 126.713 230.05C136.893 229.899 148.804 230.689 158.825 230.247L160.304 230.265L219.376 230.245C228.237 230.235 240.804 229.814 249.416 230.407C249.741 232.629 249.672 233.663 249.373 235.889C232.841 236.358 215.182 236.145 198.597 236.185L149.072 236.492C138.302 236.384 127.531 236.339 116.76 236.36C112.959 236.381 109.141 236.322 105.343 236.424C100.826 236.541 102.158 237.436 100.765 240.089L101.28 241.06C104.693 241.526 110.168 241.397 113.746 241.399L132.633 241.463C159.704 241.672 186.776 241.696 213.848 241.531C221.076 241.571 228.306 241.571 235.534 241.531C239.545 241.522 245.713 241.378 249.552 241.778C249.728 243.767 249.778 245.232 249.6 247.242C246.262 247.614 240.147 247.51 236.562 247.524L212.97 247.517L143.197 247.713L114.344 247.711C111.758 247.711 98.2365 247.103 96.9257 248.666C96.9787 249.271 97.2482 249.431 97.7001 249.902C97.6891 251.319 96.1626 250.982 95.7997 252.154C97.1231 253.409 109.688 252.974 112.184 252.978L135.822 253.098C162.016 253.331 188.211 253.362 214.405 253.188C222.17 253.158 229.935 253.202 237.697 253.322C240.456 253.338 247.415 253.122 249.67 253.682C249.766 255.532 249.82 256.611 249.672 258.466C246.948 259.014 237.316 258.828 234.082 258.828L205.804 258.868L203.501 258.83L57.9199 258.985L20.872 258.943C14.3099 258.931 7.62403 259.169 1.08783 258.753C0.63334 255.514 0.767767 245.775 0.754822 242.115C0.716458 230.219 0.750507 218.322 0.857361 206.426C0.816643 197.876 0.831639 189.326 0.901306 180.776C0.915193 176.893 0.586678 170.242 1.3808 166.759C3.93095 164.826 80.1662 167.621 91.0947 165.99C93.1042 163.177 98.2948 151.891 100.056 148.263C107.869 131.969 115.531 115.603 123.041 99.1658C124.875 95.2299 129.439 84.6436 131.61 81.6345C137.313 81.225 146.404 81.4808 152.276 81.4773L186.328 81.3748C188.356 81.3788 190.613 81.3572 192.612 81.4304C203.463 81.8944 214 82.1982 219.967 71.1873C228.588 55.2746 235.934 38.2885 243.918 22.0242C245.888 18.0104 245.821 13.3722 243.004 9.80542C241.707 8.16339 239.859 6.60851 237.678 6.2439C233.385 5.73668 228.755 5.9498 224.443 5.89331C213.073 5.78268 201.704 5.73729 190.334 5.75659L71.0185 5.80444C55.5148 5.94521 40.0097 5.94939 24.5058 5.81616C19.4658 5.85076 14.4256 5.84394 9.38568 5.79663C6.43115 5.77215 3.14769 5.86355 0.258728 5.41772C0.178404 4.26716 0.0174744 3.01754 0.171814 1.8728C0.232568 1.42237 0.415171 0.748214 0.809509 0.483154Z" fill="white"/>
  </g>
</svg>
